# xmcd
#
# Track frame offsets: 
#        183
#        17875
#        35908
#        55320
#        71475
#        87013
#        105860
#        120760
#        134335
#        151733
#        171728
#        187488
#        207728
#        222698
#        239293
#        255733
#
# Disc length: 3629 seconds
#
# Revision: 2
# Processed by: cddbd v1.5.2PL0 Copyright (c) Steve Scherf et al.
# Submitted via: ExactAudioCopy v1.0b4
#
DISCID=f00e2b10
DTITLE=G.G. Anderson - Und dann nehm' ich dich in meine Arme
DYEAR=1986
DGENRE=Pop
TTITLE0=Santa Lucia - versunken im Meer
TTITLE1=Am weißen Strand von San Angelo
TTITLE2=Sommernacht in Rom
TTITLE3=Rose von Venedig
TTITLE4=Vergessen, verloren
TTITLE5=San Fernando
TTITLE6=Und dann nehm' ich dich in meine Arme
TTITLE7=Mädchen Mädchen
TTITLE8=Jim und Andy
TTITLE9=Santa Domingo
TTITLE10=Am Morgen sterben die Träume
TTITLE11=Der Ruf der Südseemelodie
TTITLE12=Unter den Dächern von Avignon
TTITLE13=Ich fang' den Sommer für dich ein
TTITLE14=Ti amo Maria
TTITLE15=Ich glaube an die Zärtlichkeit
EXTD=YEAR: 1985 ID3G: 2
EXTT0=
EXTT1=
EXTT2=
EXTT3=
EXTT4=
EXTT5=
EXTT6=
EXTT7=
EXTT8=
EXTT9=
EXTT10=
EXTT11=
EXTT12=
EXTT13=
EXTT14=
EXTT15=
PLAYORDER=
